name Walk5.mot
datacolumns 19
datarows 27
range 2.01500000 2.04100000
endheader

                time	   L_ground_force_vx	   L_ground_force_vy	   L_ground_force_vz	   L_ground_force_px	   L_ground_force_py	   L_ground_force_pz	   R_ground_force_vx	   R_ground_force_vy	   R_ground_force_vz	   R_ground_force_px	   R_ground_force_py	   R_ground_force_pz	   L_ground_torque_x	   L_ground_torque_y	   L_ground_torque_z	   R_ground_torque_x	   R_ground_torque_y	   R_ground_torque_z	
          2.01500000	          0.01084023	          0.03350991	         -0.00213129	         -0.00019278	          0.00000000	         -0.00008398	        -25.50616817	        519.73830298	        -44.57431285	          0.26254920	          0.00000000	          0.08832359	          0.00000000	          0.00013582	          0.00000000	          0.00000000	          0.95275220	          0.00000000	
          2.01600000	          0.00956825	          0.02956087	         -0.00208968	         -0.00018337	          0.00000000	         -0.00008013	        -25.15226062	        518.39826558	        -44.47283609	          0.26303961	          0.00000000	          0.08841163	          0.00000000	          0.00012712	          0.00000000	          0.00000000	          0.94715078	          0.00000000	
          2.01700000	          0.00836826	          0.02583590	         -0.00204371	         -0.00017407	          0.00000000	         -0.00007631	        -24.80332915	        517.08570081	        -44.37115578	          0.26352910	          0.00000000	          0.08849799	          0.00000000	          0.00011868	          0.00000000	          0.00000000	          0.94178421	          0.00000000	
          2.01800000	          0.00723867	          0.02233001	         -0.00199392	         -0.00016490	          0.00000000	         -0.00007252	        -24.45927431	        515.80069856	        -44.26930272	          0.26401759	          0.00000000	          0.08858264	          0.00000000	          0.00011051	          0.00000000	          0.00000000	          0.93666007	          0.00000000	
          2.01900000	          0.00617778	          0.01903782	         -0.00194084	         -0.00015589	          0.00000000	         -0.00006878	        -24.11999154	        514.54332254	        -44.16731511	          0.26450496	          0.00000000	          0.08866556	          0.00000000	          0.00010261	          0.00000000	          0.00000000	          0.93178413	          0.00000000	
          2.02000000	          0.00518374	          0.01595361	         -0.00188493	         -0.00014706	          0.00000000	         -0.00006509	        -23.78537119	        513.31361042	        -44.06523873	          0.26499115	          0.00000000	          0.08874674	          0.00000000	          0.00009500	          0.00000000	          0.00000000	          0.92716088	          0.00000000	
          2.02100000	          0.00425463	          0.01307135	         -0.00182665	         -0.00013842	          0.00000000	         -0.00006148	        -23.45529862	        512.11157550	        -43.96312714	          0.26547603	          0.00000000	          0.08882613	          0.00000000	          0.00008768	          0.00000000	          0.00000000	          0.92279397	          0.00000000	
          2.02200000	          0.00338844	          0.01038475	         -0.00176643	         -0.00012999	          0.00000000	         -0.00005794	        -23.12965467	        510.93720990	        -43.86104158	          0.26595953	          0.00000000	          0.08890370	          0.00000000	          0.00008065	          0.00000000	          0.00000000	          0.91868653	          0.00000000	
          2.02300000	          0.00258309	          0.00788734	         -0.00170465	         -0.00012179	          0.00000000	         -0.00005448	        -22.80831633	        509.79048859	        -43.75905087	          0.26644152	          0.00000000	          0.08897944	          0.00000000	          0.00007391	          0.00000000	          0.00000000	          0.91484125	          0.00000000	
          2.02400000	          0.00183646	          0.00557247	         -0.00164169	         -0.00011382	          0.00000000	         -0.00005111	        -22.49115773	        508.67137319	        -43.65723108	          0.26692190	          0.00000000	          0.08905331	          0.00000000	          0.00006746	          0.00000000	          0.00000000	          0.91126026	          0.00000000	
          2.02500000	          0.00114637	          0.00343336	         -0.00157787	         -0.00010610	          0.00000000	         -0.00004783	        -22.17805115	        507.57981493	        -43.55566520	          0.26740056	          0.00000000	          0.08912529	          0.00000000	          0.00006131	          0.00000000	          0.00000000	          0.90794467	          0.00000000	
          2.02600000	          0.00051062	          0.00146315	         -0.00151352	         -0.00009864	          0.00000000	         -0.00004465	        -21.86886805	        506.51575633	        -43.45444272	          0.26787737	          0.00000000	          0.08919537	          0.00000000	          0.00005545	          0.00000000	          0.00000000	          0.90489420	          0.00000000	
          2.02700000	         -0.00007301	         -0.00034507	         -0.00144891	         -0.00009144	          0.00000000	         -0.00004158	        -21.56347986	        505.47913193	        -43.35365892	          0.26835223	          0.00000000	          0.08926354	          0.00000000	          0.00004988	          0.00000000	          0.00000000	          0.90210670	          0.00000000	
          2.02800000	         -0.00060673	         -0.00199825	         -0.00138433	         -0.00008451	          0.00000000	         -0.00003860	        -21.26175830	        504.46986864	        -43.25341413	          0.26882502	          0.00000000	          0.08932977	          0.00000000	          0.00004459	          0.00000000	          0.00000000	          0.89957794	          0.00000000	
          2.02900000	         -0.00109279	         -0.00350331	         -0.00132001	         -0.00007784	          0.00000000	         -0.00003574	        -20.96357523	        503.48788596	        -43.15381296	          0.26929563	          0.00000000	          0.08939407	          0.00000000	          0.00003959	          0.00000000	          0.00000000	          0.89730176	          0.00000000	
          2.03000000	         -0.00153338	         -0.00486717	         -0.00125617	         -0.00007145	          0.00000000	         -0.00003298	        -20.66880194	        502.53309666	        -43.05496354	          0.26976396	          0.00000000	          0.08945642	          0.00000000	          0.00003486	          0.00000000	          0.00000000	          0.89527036	          0.00000000	
          2.03100000	         -0.00193073	         -0.00609668	         -0.00119300	         -0.00006533	          0.00000000	         -0.00003033	        -20.37730821	        501.60540818	        -42.95697706	          0.27022990	          0.00000000	          0.08951682	          0.00000000	          0.00003040	          0.00000000	          0.00000000	          0.89347494	          0.00000000	
          2.03200000	         -0.00228699	         -0.00719861	         -0.00113071	         -0.00005949	          0.00000000	         -0.00002779	        -20.08896120	        500.70472482	        -42.85996731	          0.27069335	          0.00000000	          0.08957525	          0.00000000	          0.00002620	          0.00000000	          0.00000000	          0.89190609	          0.00000000	
          2.03300000	         -0.00260432	         -0.00817965	         -0.00106943	         -0.00005392	          0.00000000	         -0.00002537	        -19.80362462	        499.83095072	        -42.76405011	          0.27115424	          0.00000000	          0.08963172	          0.00000000	          0.00002227	          0.00000000	          0.00000000	          0.89055408	          0.00000000	
          2.03400000	         -0.00288483	         -0.00904637	         -0.00100933	         -0.00004861	          0.00000000	         -0.00002305	        -19.52115815	        498.98399274	        -42.66934266	          0.27161247	          0.00000000	          0.08968621	          0.00000000	          0.00001858	          0.00000000	          0.00000000	          0.88940879	          0.00000000	
          2.03500000	         -0.00313059	         -0.00980521	         -0.00095052	         -0.00004358	          0.00000000	         -0.00002085	        -19.24141738	        498.16376300	        -42.57596269	          0.27206796	          0.00000000	          0.08973872	          0.00000000	          0.00001514	          0.00000000	          0.00000000	          0.88845948	          0.00000000	
          2.03600000	         -0.00334362	         -0.01046248	         -0.00089311	         -0.00003881	          0.00000000	         -0.00001875	        -18.96425435	        497.37018026	        -42.48402777	          0.27252063	          0.00000000	          0.08978927	          0.00000000	          0.00001193	          0.00000000	          0.00000000	          0.88769441	          0.00000000	
          2.03700000	         -0.00352590	         -0.01102433	         -0.00083722	         -0.00003429	          0.00000000	         -0.00001676	        -18.68951841	        496.60317016	        -42.39365463	          0.27297040	          0.00000000	          0.08983785	          0.00000000	          0.00000895	          0.00000000	          0.00000000	          0.88710063	          0.00000000	
          2.03800000	         -0.00367936	         -0.01149675	         -0.00078291	         -0.00003003	          0.00000000	         -0.00001488	        -18.41705725	        495.86266441	        -42.30495878	          0.27341720	          0.00000000	          0.08988449	          0.00000000	          0.00000619	          0.00000000	          0.00000000	          0.88666406	          0.00000000	
          2.03900000	         -0.00380587	         -0.01188556	         -0.00073027	         -0.00002602	          0.00000000	         -0.00001310	        -18.14671783	        495.14859950	        -42.21805419	          0.27386095	          0.00000000	          0.08992918	          0.00000000	          0.00000364	          0.00000000	          0.00000000	          0.88636978	          0.00000000	
          2.04000000	         -0.00390725	         -0.01219640	         -0.00067933	         -0.00002226	          0.00000000	         -0.00001142	        -17.87834708	        494.46091527	        -42.13305315	          0.27430158	          0.00000000	          0.08997196	          0.00000000	          0.00000129	          0.00000000	          0.00000000	          0.88620264	          0.00000000	
          2.04100000	         -0.00398524	         -0.01243473	         -0.00063017	         -0.00001873	          0.00000000	         -0.00000984	        -17.61179230	        493.79955371	        -42.05006614	          0.27473901	          0.00000000	          0.09001283	          0.00000000	         -0.00000086	          0.00000000	          0.00000000	          0.88614780	          0.00000000	
